<svg xmlns="http://www.w3.org/2000/svg" xmlns:xlink="http://www.w3.org/1999/xlink" width="881" zoomAndPan="magnify" viewBox="0 0 660.75 289.499996" height="386" preserveAspectRatio="xMidYMid meet" version="1.0"><defs><g/><clipPath id="27ef740792"><path d="M 11 167 L 78.359375 167 L 78.359375 202.195312 L 11 202.195312 Z M 11 167 " clip-rule="nonzero"/></clipPath><clipPath id="fc5c933d26"><path d="M 25 127.324219 L 65 127.324219 L 65 167 L 25 167 Z M 25 127.324219 " clip-rule="nonzero"/></clipPath><clipPath id="02f7248373"><path d="M 0.445312 77.230469 L 88.792969 77.230469 L 88.792969 165.578125 L 0.445312 165.578125 Z M 0.445312 77.230469 " clip-rule="nonzero"/></clipPath><clipPath id="067a899a40"><path d="M 11.859375 100.0625 L 77.746094 100.0625 L 77.746094 165.949219 L 11.859375 165.949219 Z M 11.859375 100.0625 " clip-rule="nonzero"/></clipPath></defs><g fill="#000000" fill-opacity="1"><g transform="translate(102.377696, 201.787269)"><g><path d="M 5.203125 32.859375 C -3.691406 32.859375 -10.46875 31.234375 -15.125 27.984375 L -8.296875 9.59375 C -5.367188 11.65625 -1.789062 12.6875 2.4375 12.6875 C 5.695312 12.6875 8.25 11.628906 10.09375 9.515625 C 11.9375 7.398438 12.859375 4.226562 12.859375 0 L 12.859375 -87.53125 L 38.234375 -87.53125 L 38.234375 -0.15625 C 38.234375 10.03125 35.332031 18.078125 29.53125 23.984375 C 23.726562 29.898438 15.617188 32.859375 5.203125 32.859375 Z M 25.546875 -99.734375 C 20.878906 -99.734375 17.082031 -101.085938 14.15625 -103.796875 C 11.226562 -106.515625 9.765625 -109.878906 9.765625 -113.890625 C 9.765625 -117.898438 11.226562 -121.257812 14.15625 -123.96875 C 17.082031 -126.6875 20.878906 -128.046875 25.546875 -128.046875 C 30.210938 -128.046875 34.007812 -126.742188 36.9375 -124.140625 C 39.863281 -121.535156 41.328125 -118.28125 41.328125 -114.375 C 41.328125 -110.144531 39.863281 -106.644531 36.9375 -103.875 C 34.007812 -101.113281 30.210938 -99.734375 25.546875 -99.734375 Z M 25.546875 -99.734375 "/></g></g></g><g fill="#000000" fill-opacity="1"><g transform="translate(140.284432, 201.787269)"><g><path d="M 53.359375 1.296875 C 44.140625 1.296875 35.867188 -0.625 28.546875 -4.46875 C 21.234375 -8.320312 15.515625 -13.664062 11.390625 -20.5 C 7.265625 -27.332031 5.203125 -35.085938 5.203125 -43.765625 C 5.203125 -52.441406 7.265625 -60.195312 11.390625 -67.03125 C 15.515625 -73.863281 21.234375 -79.203125 28.546875 -83.046875 C 35.867188 -86.898438 44.140625 -88.828125 53.359375 -88.828125 C 62.585938 -88.828125 70.832031 -86.898438 78.09375 -83.046875 C 85.363281 -79.203125 91.054688 -73.863281 95.171875 -67.03125 C 99.296875 -60.195312 101.359375 -52.441406 101.359375 -43.765625 C 101.359375 -35.085938 99.296875 -27.332031 95.171875 -20.5 C 91.054688 -13.664062 85.363281 -8.320312 78.09375 -4.46875 C 70.832031 -0.625 62.585938 1.296875 53.359375 1.296875 Z M 53.359375 -19.53125 C 59.867188 -19.53125 65.210938 -21.722656 69.390625 -26.109375 C 73.566406 -30.503906 75.65625 -36.390625 75.65625 -43.765625 C 75.65625 -51.140625 73.566406 -57.023438 69.390625 -61.421875 C 65.210938 -65.816406 59.867188 -68.015625 53.359375 -68.015625 C 46.859375 -68.015625 41.488281 -65.816406 37.25 -61.421875 C 33.019531 -57.023438 30.90625 -51.140625 30.90625 -43.765625 C 30.90625 -36.390625 33.019531 -30.503906 37.25 -26.109375 C 41.488281 -21.722656 46.859375 -19.53125 53.359375 -19.53125 Z M 53.359375 -19.53125 "/></g></g></g><g fill="#000000" fill-opacity="1"><g transform="translate(234.808811, 201.787269)"><g><path d="M 63.453125 -88.828125 C 71.585938 -88.828125 78.988281 -86.957031 85.65625 -83.21875 C 92.332031 -79.476562 97.566406 -74.21875 101.359375 -67.4375 C 105.160156 -60.65625 107.0625 -52.765625 107.0625 -43.765625 C 107.0625 -34.765625 105.160156 -26.875 101.359375 -20.09375 C 97.566406 -13.3125 92.332031 -8.050781 85.65625 -4.3125 C 78.988281 -0.570312 71.585938 1.296875 63.453125 1.296875 C 51.410156 1.296875 42.242188 -2.5 35.953125 -10.09375 L 35.953125 0 L 11.71875 0 L 11.71875 -120.71875 L 37.09375 -120.71875 L 37.09375 -78.265625 C 43.5 -85.304688 52.285156 -88.828125 63.453125 -88.828125 Z M 59.0625 -19.53125 C 65.570312 -19.53125 70.910156 -21.722656 75.078125 -26.109375 C 79.253906 -30.503906 81.34375 -36.390625 81.34375 -43.765625 C 81.34375 -51.140625 79.253906 -57.023438 75.078125 -61.421875 C 70.910156 -65.816406 65.570312 -68.015625 59.0625 -68.015625 C 52.550781 -68.015625 47.207031 -65.816406 43.03125 -61.421875 C 38.851562 -57.023438 36.765625 -51.140625 36.765625 -43.765625 C 36.765625 -36.390625 38.851562 -30.503906 43.03125 -26.109375 C 47.207031 -21.722656 52.550781 -19.53125 59.0625 -19.53125 Z M 59.0625 -19.53125 "/></g></g></g><g fill="#000000" fill-opacity="1"><g transform="translate(335.027503, 201.787269)"><g><path d="M 63.453125 -88.828125 C 71.585938 -88.828125 78.988281 -86.957031 85.65625 -83.21875 C 92.332031 -79.476562 97.566406 -74.21875 101.359375 -67.4375 C 105.160156 -60.65625 107.0625 -52.765625 107.0625 -43.765625 C 107.0625 -34.765625 105.160156 -26.875 101.359375 -20.09375 C 97.566406 -13.3125 92.332031 -8.050781 85.65625 -4.3125 C 78.988281 -0.570312 71.585938 1.296875 63.453125 1.296875 C 51.410156 1.296875 42.242188 -2.5 35.953125 -10.09375 L 35.953125 0 L 11.71875 0 L 11.71875 -120.71875 L 37.09375 -120.71875 L 37.09375 -78.265625 C 43.5 -85.304688 52.285156 -88.828125 63.453125 -88.828125 Z M 59.0625 -19.53125 C 65.570312 -19.53125 70.910156 -21.722656 75.078125 -26.109375 C 79.253906 -30.503906 81.34375 -36.390625 81.34375 -43.765625 C 81.34375 -51.140625 79.253906 -57.023438 75.078125 -61.421875 C 70.910156 -65.816406 65.570312 -68.015625 59.0625 -68.015625 C 52.550781 -68.015625 47.207031 -65.816406 43.03125 -61.421875 C 38.851562 -57.023438 36.765625 -51.140625 36.765625 -43.765625 C 36.765625 -36.390625 38.851562 -30.503906 43.03125 -26.109375 C 47.207031 -21.722656 52.550781 -19.53125 59.0625 -19.53125 Z M 59.0625 -19.53125 "/></g></g></g><g fill="#000000" fill-opacity="1"><g transform="translate(435.246196, 201.787269)"><g><path d="M 35.953125 -75.984375 C 38.992188 -80.210938 43.085938 -83.410156 48.234375 -85.578125 C 53.390625 -87.742188 59.332031 -88.828125 66.0625 -88.828125 L 66.0625 -65.40625 C 63.238281 -65.625 61.335938 -65.734375 60.359375 -65.734375 C 53.097656 -65.734375 47.40625 -63.695312 43.28125 -59.625 C 39.15625 -55.5625 37.09375 -49.460938 37.09375 -41.328125 L 37.09375 0 L 11.71875 0 L 11.71875 -87.53125 L 35.953125 -87.53125 Z M 35.953125 -75.984375 "/></g></g></g><g fill="#000000" fill-opacity="1"><g transform="translate(493.327046, 201.787269)"><g><path d="M 11.71875 -87.53125 L 37.09375 -87.53125 L 37.09375 0 L 11.71875 0 Z M 24.40625 -99.734375 C 19.738281 -99.734375 15.941406 -101.085938 13.015625 -103.796875 C 10.085938 -106.515625 8.625 -109.878906 8.625 -113.890625 C 8.625 -117.898438 10.085938 -121.257812 13.015625 -123.96875 C 15.941406 -126.6875 19.738281 -128.046875 24.40625 -128.046875 C 29.070312 -128.046875 32.867188 -126.742188 35.796875 -124.140625 C 38.722656 -121.535156 40.1875 -118.28125 40.1875 -114.375 C 40.1875 -110.144531 38.722656 -106.644531 35.796875 -103.875 C 32.867188 -101.113281 29.070312 -99.734375 24.40625 -99.734375 Z M 24.40625 -99.734375 "/></g></g></g><g fill="#000000" fill-opacity="1"><g transform="translate(530.2576, 201.787269)"><g><path d="M 83.796875 -19.53125 L 83.796875 0 L 5.6875 0 L 5.6875 -15.296875 L 50.28125 -68.015625 L 6.828125 -68.015625 L 6.828125 -87.53125 L 82.328125 -87.53125 L 82.328125 -72.234375 L 37.75 -19.53125 Z M 83.796875 -19.53125 "/></g></g></g><g clip-path="url(#27ef740792)"><path fill="#005ad1" d="M 59.597656 167.007812 C 55.28125 170.175781 50.074219 171.886719 44.722656 171.898438 C 39.367188 171.886719 34.160156 170.171875 29.839844 167.007812 C 19.351562 168.191406 11.265625 176.578125 11.265625 186.824219 L 11.265625 194.605469 C 11.265625 200.046875 13.921875 202.0625 18.597656 202.023438 L 70.84375 202.023438 C 75.519531 202.0625 78.175781 200.046875 78.175781 194.605469 L 78.175781 186.824219 C 78.175781 176.578125 70.089844 168.183594 59.597656 167.007812 Z M 59.597656 167.007812 " fill-opacity="1" fill-rule="nonzero"/></g><g clip-path="url(#fc5c933d26)"><path fill="#005ad1" d="M 44.722656 127.292969 C 39.578125 127.292969 34.652344 129.335938 31.011719 132.972656 C 27.382812 136.609375 25.34375 141.539062 25.34375 146.675781 C 25.34375 151.816406 27.382812 156.75 31.011719 160.378906 C 34.652344 164.015625 39.578125 166.054688 44.722656 166.054688 C 49.863281 166.054688 54.789062 164.015625 58.425781 160.378906 C 62.0625 156.75 64.105469 151.816406 64.105469 146.675781 C 64.105469 141.539062 62.0625 136.609375 58.425781 132.972656 C 54.789062 129.335938 49.863281 127.292969 44.722656 127.292969 Z M 44.722656 127.292969 " fill-opacity="1" fill-rule="nonzero"/></g><g clip-path="url(#02f7248373)"><path fill="#73afff" d="M 88.992188 121.503906 C 88.992188 122.953125 88.921875 124.398438 88.777344 125.84375 C 88.636719 127.285156 88.421875 128.71875 88.140625 130.140625 C 87.859375 131.5625 87.503906 132.96875 87.085938 134.355469 C 86.664062 135.742188 86.175781 137.105469 85.621094 138.445312 C 85.066406 139.785156 84.445312 141.09375 83.761719 142.375 C 83.078125 143.652344 82.335938 144.894531 81.53125 146.101562 C 80.722656 147.304688 79.863281 148.46875 78.941406 149.589844 C 78.023438 150.710938 77.050781 151.785156 76.023438 152.808594 C 75 153.835938 73.925781 154.808594 72.804688 155.726562 C 71.683594 156.648438 70.519531 157.511719 69.316406 158.316406 C 68.109375 159.121094 66.867188 159.867188 65.589844 160.550781 C 64.308594 161.234375 63 161.851562 61.660156 162.40625 C 60.320312 162.960938 58.957031 163.449219 57.570312 163.871094 C 56.183594 164.292969 54.777344 164.644531 53.355469 164.925781 C 51.933594 165.207031 50.5 165.421875 49.058594 165.5625 C 47.613281 165.707031 46.167969 165.777344 44.71875 165.777344 C 43.269531 165.777344 41.820312 165.707031 40.378906 165.5625 C 38.933594 165.421875 37.503906 165.207031 36.082031 164.925781 C 34.660156 164.644531 33.253906 164.292969 31.867188 163.871094 C 30.480469 163.449219 29.113281 162.960938 27.773438 162.40625 C 26.4375 161.851562 25.125 161.234375 23.847656 160.550781 C 22.570312 159.867188 21.328125 159.121094 20.121094 158.316406 C 18.914062 157.511719 17.753906 156.648438 16.632812 155.726562 C 15.511719 154.808594 14.4375 153.835938 13.414062 152.808594 C 12.386719 151.785156 11.414062 150.710938 10.496094 149.589844 C 9.574219 148.46875 8.710938 147.304688 7.90625 146.101562 C 7.101562 144.894531 6.355469 143.652344 5.671875 142.375 C 4.988281 141.09375 4.371094 139.785156 3.816406 138.445312 C 3.261719 137.105469 2.773438 135.742188 2.351562 134.355469 C 1.929688 132.96875 1.578125 131.5625 1.296875 130.140625 C 1.011719 128.71875 0.800781 127.285156 0.65625 125.84375 C 0.515625 124.398438 0.445312 122.953125 0.445312 121.503906 C 0.445312 120.054688 0.515625 118.605469 0.65625 117.164062 C 0.800781 115.722656 1.011719 114.289062 1.296875 112.867188 C 1.578125 111.445312 1.929688 110.039062 2.351562 108.652344 C 2.773438 107.265625 3.261719 105.902344 3.816406 104.5625 C 4.371094 103.222656 4.988281 101.914062 5.671875 100.632812 C 6.355469 99.355469 7.101562 98.113281 7.90625 96.90625 C 8.710938 95.703125 9.574219 94.539062 10.496094 93.417969 C 11.414062 92.296875 12.386719 91.222656 13.414062 90.199219 C 14.4375 89.171875 15.511719 88.199219 16.632812 87.28125 C 17.753906 86.359375 18.914062 85.496094 20.121094 84.691406 C 21.328125 83.886719 22.570312 83.140625 23.847656 82.457031 C 25.125 81.773438 26.4375 81.15625 27.773438 80.601562 C 29.113281 80.046875 30.480469 79.558594 31.867188 79.136719 C 33.253906 78.714844 34.660156 78.363281 36.082031 78.082031 C 37.503906 77.796875 38.933594 77.585938 40.378906 77.445312 C 41.820312 77.300781 43.269531 77.230469 44.71875 77.230469 C 46.167969 77.230469 47.613281 77.300781 49.058594 77.445312 C 50.5 77.585938 51.933594 77.796875 53.355469 78.082031 C 54.777344 78.363281 56.183594 78.714844 57.570312 79.136719 C 58.957031 79.558594 60.320312 80.046875 61.660156 80.601562 C 63 81.15625 64.308594 81.773438 65.589844 82.457031 C 66.867188 83.140625 68.109375 83.886719 69.316406 84.691406 C 70.519531 85.496094 71.683594 86.359375 72.804688 87.28125 C 73.925781 88.199219 75 89.171875 76.023438 90.199219 C 77.050781 91.222656 78.023438 92.296875 78.941406 93.417969 C 79.863281 94.539062 80.722656 95.703125 81.53125 96.90625 C 82.335938 98.113281 83.078125 99.355469 83.761719 100.632812 C 84.445312 101.914062 85.066406 103.222656 85.621094 104.5625 C 86.175781 105.902344 86.664062 107.265625 87.085938 108.652344 C 87.503906 110.039062 87.859375 111.445312 88.140625 112.867188 C 88.421875 114.289062 88.636719 115.722656 88.777344 117.164062 C 88.921875 118.605469 88.992188 120.054688 88.992188 121.503906 Z M 88.992188 121.503906 " fill-opacity="1" fill-rule="nonzero"/></g><g clip-path="url(#067a899a40)"><path fill="#005ad1" d="M 77.570312 132.917969 C 77.570312 133.992188 77.519531 135.066406 77.414062 136.136719 C 77.308594 137.207031 77.148438 138.269531 76.941406 139.328125 C 76.730469 140.382812 76.46875 141.425781 76.15625 142.453125 C 75.84375 143.484375 75.480469 144.496094 75.070312 145.492188 C 74.660156 146.484375 74.199219 147.457031 73.691406 148.40625 C 73.183594 149.355469 72.632812 150.277344 72.035156 151.171875 C 71.4375 152.066406 70.796875 152.929688 70.113281 153.761719 C 69.429688 154.59375 68.707031 155.386719 67.949219 156.148438 C 67.1875 156.910156 66.390625 157.632812 65.558594 158.316406 C 64.726562 158.996094 63.863281 159.636719 62.96875 160.234375 C 62.074219 160.832031 61.152344 161.386719 60.203125 161.894531 C 59.253906 162.398438 58.28125 162.859375 57.289062 163.269531 C 56.292969 163.683594 55.28125 164.046875 54.253906 164.359375 C 53.222656 164.671875 52.179688 164.929688 51.125 165.140625 C 50.070312 165.351562 49.007812 165.507812 47.9375 165.613281 C 46.867188 165.71875 45.792969 165.773438 44.714844 165.773438 C 43.640625 165.773438 42.566406 165.71875 41.496094 165.613281 C 40.425781 165.507812 39.363281 165.351562 38.304688 165.140625 C 37.25 164.929688 36.207031 164.671875 35.179688 164.359375 C 34.148438 164.046875 33.136719 163.683594 32.144531 163.269531 C 31.148438 162.859375 30.175781 162.398438 29.226562 161.894531 C 28.277344 161.386719 27.355469 160.832031 26.460938 160.234375 C 25.566406 159.636719 24.703125 158.996094 23.871094 158.316406 C 23.039062 157.632812 22.246094 156.910156 21.484375 156.148438 C 20.722656 155.386719 20 154.59375 19.316406 153.761719 C 18.636719 152.929688 17.996094 152.066406 17.398438 151.171875 C 16.800781 150.277344 16.246094 149.355469 15.738281 148.40625 C 15.234375 147.457031 14.773438 146.484375 14.363281 145.492188 C 13.949219 144.496094 13.585938 143.484375 13.273438 142.453125 C 12.960938 141.425781 12.703125 140.382812 12.492188 139.328125 C 12.28125 138.269531 12.125 137.207031 12.019531 136.136719 C 11.914062 135.066406 11.859375 133.992188 11.859375 132.917969 C 11.859375 131.839844 11.914062 130.765625 12.019531 129.695312 C 12.125 128.625 12.28125 127.5625 12.492188 126.507812 C 12.703125 125.453125 12.960938 124.410156 13.273438 123.378906 C 13.585938 122.351562 13.949219 121.339844 14.363281 120.34375 C 14.773438 119.351562 15.234375 118.378906 15.738281 117.429688 C 16.246094 116.480469 16.800781 115.558594 17.398438 114.664062 C 17.996094 113.769531 18.636719 112.90625 19.316406 112.074219 C 20 111.242188 20.722656 110.445312 21.484375 109.683594 C 22.246094 108.925781 23.039062 108.203125 23.871094 107.519531 C 24.703125 106.835938 25.566406 106.195312 26.460938 105.597656 C 27.355469 105 28.277344 104.449219 29.226562 103.941406 C 30.175781 103.433594 31.148438 102.972656 32.144531 102.5625 C 33.136719 102.152344 34.148438 101.789062 35.179688 101.476562 C 36.207031 101.164062 37.25 100.902344 38.304688 100.691406 C 39.363281 100.484375 40.425781 100.324219 41.496094 100.21875 C 42.566406 100.113281 43.640625 100.0625 44.714844 100.0625 C 45.792969 100.0625 46.867188 100.113281 47.9375 100.21875 C 49.007812 100.324219 50.070312 100.484375 51.125 100.691406 C 52.179688 100.902344 53.222656 101.164062 54.253906 101.476562 C 55.28125 101.789062 56.292969 102.152344 57.289062 102.5625 C 58.28125 102.972656 59.253906 103.433594 60.203125 103.941406 C 61.152344 104.449219 62.074219 105 62.96875 105.597656 C 63.863281 106.195312 64.726562 106.835938 65.558594 107.519531 C 66.390625 108.203125 67.1875 108.925781 67.949219 109.683594 C 68.707031 110.445312 69.429688 111.242188 70.113281 112.074219 C 70.796875 112.90625 71.4375 113.769531 72.035156 114.664062 C 72.632812 115.558594 73.183594 116.480469 73.691406 117.429688 C 74.199219 118.378906 74.660156 119.351562 75.070312 120.34375 C 75.480469 121.339844 75.84375 122.351562 76.15625 123.378906 C 76.46875 124.410156 76.730469 125.453125 76.941406 126.507812 C 77.148438 127.5625 77.308594 128.625 77.414062 129.695312 C 77.519531 130.765625 77.570312 131.839844 77.570312 132.917969 Z M 77.570312 132.917969 " fill-opacity="1" fill-rule="nonzero"/></g></svg>